<svg xmlns="http://www.w3.org/2000/svg" width="44" height="32" viewBox="0 0 44 32" fill="#ffffff">
  <path d="M17.2052 9.0257L13.3008 15.8273H21.1096L17.2052 9.0257Z"></path>
  <path d="M10.1039 0L5.04102 8.83132V15.8273H13.0001V8.78813L18.0415 0H10.1039Z"></path>
  <path d="M21.4102 31.9785H30.3131L21.4102 16.4535V31.9785Z"></path>
  <path d="M13.0215 16.1511H5.04102V31.9784H13.0215V16.1511Z"></path>
  <path d="M36.1271 16.1511C31.7936 16.1511 28.2539 19.7139 28.2539 24.0756C28.2539 28.4372 31.7936 32 36.1271 32C40.4606 32 44.0004 28.4372 44.0004 24.0756C44.0004 19.6923 40.4821 16.1511 36.1271 16.1511Z"></path>
  <path d="M13.3223 16.1511V31.9784C17.6558 31.9784 21.1955 28.4156 21.1955 24.054C21.1955 19.6923 17.6558 16.1511 13.3223 16.1511Z"></path>
  <path d="M21.4745 15.8272H31.3428L22.3326 0.10791L17.3984 8.7233L21.4745 15.8272Z"></path>
  <path d="M21.6035 16.1511L25.9799 23.7949C27.6103 23.2982 28.7259 21.7868 28.7259 20.0594C28.7259 17.9001 26.9882 16.1511 24.8429 16.1511H21.6035Z"></path>
  <path d="M0 0L4.86982 8.50743L9.73963 0H0Z"></path>
</svg>
